<svg width="20" height="19" viewBox="0 0 20 19" fill="none" xmlns="http://www.w3.org/2000/svg">
<path fill-rule="evenodd" clip-rule="evenodd" d="M2.62204 8C2.62204 4.61388 5.38383 1.89223 8.76147 1.89223C12.1391 1.89223 14.9009 4.61388 14.9009 8C14.9009 9.5973 14.2863 11.0467 13.2825 12.1324C13.2142 12.1718 13.1497 12.22 13.0907 12.277C13.0242 12.3413 12.9691 12.4125 12.9253 12.4883C11.8291 13.4946 10.3646 14.1078 8.76147 14.1078C5.38383 14.1078 2.62204 11.3861 2.62204 8ZM13.7425 14.2967C12.3722 15.363 10.644 16 8.76147 16C4.28958 16 0.688072 12.4054 0.688072 8C0.688072 3.59461 4.28958 0 8.76147 0C13.2334 0 16.8349 3.59461 16.8349 8C16.8349 9.85549 16.196 11.5671 15.1222 12.927L19.5799 17.3617C19.9604 17.7403 19.956 18.3498 19.5699 18.723C19.1838 19.0961 18.5623 19.0918 18.1817 18.7132L13.7425 14.2967Z" fill="#3478F6"/>
</svg>
